<svg xmlns="http://www.w3.org/2000/svg" viewBox="0 0 144.26 76.64"><defs><style>.cls-1{fill:#4d4d4d;}</style></defs><g id="Layer_2" data-name="Layer 2"><g id="Isolation_Mode" data-name="Isolation Mode"><path class="cls-1" d="M34.87,49.42c-2.1,1.81-5.82,1.94-9.95.33a2,2,0,1,0-1.45,3.73,19.48,19.48,0,0,0,6.42,1.38v4a2,2,0,0,0,4,0V54.38a9.9,9.9,0,0,0,3.59-1.93A7.6,7.6,0,0,0,40.05,45c-.81-3.59-4-6.4-8.85-7.71-2.68-.77-4.35-2.12-4.72-3.8a4.18,4.18,0,0,1,1.62-4c2.18-1.89,5.6-2.21,9.13-.87a2,2,0,1,0,1.42-3.73,15.71,15.71,0,0,0-4.76-1.05v-4a2,2,0,0,0-4,0v4.32a10.86,10.86,0,0,0-4.41,2.27,8.12,8.12,0,0,0-2.91,7.88c.4,1.84,1.92,5.18,7.55,6.8,3.36.92,5.55,2.64,6,4.74A3.62,3.62,0,0,1,34.87,49.42Z"/><path class="cls-1" d="M69.13,32.89h52.44a2,2,0,0,0,2-2V15.67a2,2,0,0,0-2-2H69.13a2,2,0,0,0-2,2V30.89A2,2,0,0,0,69.13,32.89Zm2-15.22h48.44V28.89H71.13Z"/><path class="cls-1" d="M69.13,44.73h52.44a2,2,0,0,0,0-4H69.13a2,2,0,0,0,0,4Z"/><path class="cls-1" d="M69.13,53.91H88.94a2,2,0,0,0,0-4H69.13a2,2,0,0,0,0,4Z"/><path class="cls-1" d="M144.26,71.29V5.34A5.35,5.35,0,0,0,138.92,0H5.34A5.35,5.35,0,0,0,0,5.34v66a5.35,5.35,0,0,0,5.34,5.35H138.92A5.35,5.35,0,0,0,144.26,71.29ZM4,71.29V5.34A1.34,1.34,0,0,1,5.34,4H138.92a1.34,1.34,0,0,1,1.34,1.34v66a1.35,1.35,0,0,1-1.34,1.35H5.34A1.35,1.35,0,0,1,4,71.29Z"/></g></g></svg>