<svg xmlns="http://www.w3.org/2000/svg" viewBox="0 0 124.11 79.2"><defs><style>.cls-1{fill:#4d4d4d;}</style></defs><g id="Layer_2" data-name="Layer 2"><g id="Isolation_Mode" data-name="Isolation Mode"><path class="cls-1" d="M115.36,0H8.75A8.77,8.77,0,0,0,0,8.75v61.7A8.76,8.76,0,0,0,8.75,79.2H115.36a8.75,8.75,0,0,0,8.75-8.75V8.75A8.76,8.76,0,0,0,115.36,0Zm4.75,70.45a4.75,4.75,0,0,1-4.75,4.75H8.75A4.75,4.75,0,0,1,4,70.45V8.75A4.75,4.75,0,0,1,8.75,4H115.36a4.75,4.75,0,0,1,4.75,4.75Z"/><path class="cls-1" d="M90,18a2,2,0,0,0-2.58,1.17,13.63,13.63,0,0,0-.89,4.86,13.87,13.87,0,0,0,.79,4.61A2,2,0,0,0,89.23,30a1.92,1.92,0,0,0,.66-.12,2,2,0,0,0,1.22-2.55,9.81,9.81,0,0,1-.56-3.27,9.63,9.63,0,0,1,.63-3.45A2,2,0,0,0,90,18Z"/><path class="cls-1" d="M100.33,10.29a12,12,0,0,0-7.5,2.57,13.79,13.79,0,1,0-.27,22.57,13.77,13.77,0,1,0,7.77-25.14ZM75,24.06a9.77,9.77,0,1,1,9.77,9.78A9.78,9.78,0,0,1,75,24.06Zm25.29,9.78a9.77,9.77,0,0,1-4.72-1.23,14.07,14.07,0,0,0,1-1.49,13.8,13.8,0,0,0-.06-14.21c-.26-.42-.55-.83-.84-1.22a7.81,7.81,0,0,1,4.59-1.4,9.78,9.78,0,0,1,0,19.55Z"/></g></g></svg>