<svg xmlns="http://www.w3.org/2000/svg" viewBox="0 0 144.26 76.64"><defs><style>.cls-1{fill:#4d4d4d;}</style></defs><g id="Layer_2" data-name="Layer 2"><g id="_ÎÓÈ_2" data-name="—ÎÓÈ_2"><path class="cls-1" d="M144.26,71.29V5.34A5.35,5.35,0,0,0,138.92,0H5.34A5.35,5.35,0,0,0,0,5.34v66a5.35,5.35,0,0,0,5.34,5.35H138.92A5.35,5.35,0,0,0,144.26,71.29ZM4,71.29V5.34A1.34,1.34,0,0,1,5.34,4H138.92a1.34,1.34,0,0,1,1.34,1.34v66a1.35,1.35,0,0,1-1.34,1.35H5.34A1.35,1.35,0,0,1,4,71.29Z"/><path class="cls-1" d="M71.08,36.26c-2.48-.72-4-2-4.37-3.51a3.84,3.84,0,0,1,1.48-3.66c2-1.75,5.22-2.05,8.51-.79a2,2,0,1,0,1.42-3.74,15.3,15.3,0,0,0-4.42-1V19.93a2,2,0,1,0-4,0v4a10.42,10.42,0,0,0-4.12,2.14,7.8,7.8,0,0,0-2.78,7.55c.38,1.76,1.83,5,7.2,6.5,3.08.84,5.17,2.48,5.6,4.38a3.27,3.27,0,0,1-1.16,3.27c-2,1.68-5.42,1.79-9.28.3a2,2,0,0,0-1.44,3.72,18.31,18.31,0,0,0,6,1.31V56.7a2,2,0,0,0,4,0V52.61a9.41,9.41,0,0,0,3.35-1.82,7.26,7.26,0,0,0,2.46-7.18C78.73,40.19,75.65,37.51,71.08,36.26Z"/><path class="cls-1" d="M130.59,24.12a9.33,9.33,0,0,1-2,.22,9.14,9.14,0,0,1-9.13-9.14,9.63,9.63,0,0,1,.26-2.15,2,2,0,0,0-1.94-2.47H26.43a2,2,0,0,0-1.95,2.47,9.09,9.09,0,0,1-8.86,11.29,9.33,9.33,0,0,1-1.95-.22,2,2,0,0,0-2.43,2V50.56A2,2,0,0,0,12,52.12a2,2,0,0,0,1.68.39,9.31,9.31,0,0,1,1.95-.21,9.09,9.09,0,0,1,8.86,11.29,2,2,0,0,0,1.95,2.46h91.4a2,2,0,0,0,1.57-.76,2,2,0,0,0,.37-1.71,9.49,9.49,0,0,1-.26-2.15,9.14,9.14,0,0,1,9.13-9.13,9.31,9.31,0,0,1,2,.21,2,2,0,0,0,1.68-.39,2,2,0,0,0,.75-1.56V26.08a2,2,0,0,0-2.43-2ZM129,48.31a13.12,13.12,0,0,0-13.51,13.12c0,.21,0,.42,0,.62H28.74c0-.2,0-.41,0-.62A13.14,13.14,0,0,0,15.24,48.3v-20A13.13,13.13,0,0,0,28.75,15.2c0-.2,0-.41,0-.62h86.78c0,.21,0,.42,0,.62A13.13,13.13,0,0,0,129,28.33Z"/></g></g></svg>