<svg id="Isolation_Mode" data-name="Isolation Mode" xmlns="http://www.w3.org/2000/svg" viewBox="0 0 14.99 17.28"><defs><style>.cls-1,.cls-2{fill:none;stroke:#3c549e;stroke-miterlimit:22.93;stroke-width:1.2px;}.cls-2{stroke-linecap:round;}</style></defs><line class="cls-1" x1="1.78" y1="9.74" x2="13.06" y2="9.74"/><path class="cls-2" d="M9.25,5.79l1-4.2C10,.27,5,.27,4.8,1.59l.94,4.2" transform="translate(-0.03 0)"/><path class="cls-2" d="M2.92,2.27C1.43,3.37,1.35,5.1,1.18,7.06c0,.47-.43.19-.53,1.13a9.69,9.69,0,0,0,0,1.32.51.51,0,0,0,.07.24H1.85a12.67,12.67,0,0,0,.77,4A6,6,0,0,0,6.4,16.59a4.75,4.75,0,0,0,1.84,0,6.41,6.41,0,0,0,3.92-2.84,13.13,13.13,0,0,0,1-4h1.16a.49.49,0,0,0,.08-.24,9.69,9.69,0,0,0,0-1.32c-.1-.94-.5-.66-.52-1.13-.17-2-.26-3.69-1.75-4.79" transform="translate(-0.03 0)"/></svg>